<svg height="512pt" viewBox="0 0 512 512" width="512pt" xmlns="http://www.w3.org/2000/svg" xmlns:xlink="http://www.w3.org/1999/xlink"><linearGradient id="a" gradientUnits="userSpaceOnUse" x1="74.9807" x2="437.0193" y1="74.9807" y2="437.0193"><stop offset="0" stop-color="#015e82"/><stop offset="1" stop-color="#014059"/></linearGradient><linearGradient id="b" gradientUnits="userSpaceOnUse" x1="56.75" x2="455.25" y1="256" y2="256"><stop offset="0" stop-color="#fff"/><stop offset="1" stop-color="#aae8fd"/></linearGradient><linearGradient id="c" gradientUnits="userSpaceOnUse" x1="131.6778" x2="380.3222" y1="131.6778" y2="380.3222"><stop offset="0" stop-color="#ff4b37"/><stop offset="1" stop-color="#d5011d"/></linearGradient><linearGradient id="d" gradientUnits="userSpaceOnUse" x1="199.5493" x2="312.3392" y1="199.6606" y2="312.4505"><stop offset="0" stop-color="#009ad2"/><stop offset="1" stop-color="#007caa"/></linearGradient><linearGradient id="e"><stop offset="0" stop-color="#aae8fd"/><stop offset="1" stop-color="#00b8fa"/></linearGradient><linearGradient id="f" gradientUnits="userSpaceOnUse" x1="284.5927" x2="318.9056" xlink:href="#e" y1="275.4561" y2="309.769"/><linearGradient id="g" gradientUnits="userSpaceOnUse" x1="282.293" x2="321.2053" xlink:href="#e" y1="199.9313" y2="238.8436"/><linearGradient id="h" gradientUnits="userSpaceOnUse" x1="235.3745" x2="276.6255" xlink:href="#e" y1="194.1235" y2="235.3745"/><linearGradient id="i" gradientUnits="userSpaceOnUse" x1="235.3745" x2="276.6255" xlink:href="#e" y1="276.6255" y2="317.8765"/><linearGradient id="j" gradientUnits="userSpaceOnUse" x1="190.7947" x2="229.707" xlink:href="#e" y1="273.1564" y2="312.0687"/><linearGradient id="k" gradientUnits="userSpaceOnUse" x1="193.0944" x2="227.4073" xlink:href="#e" y1="202.231" y2="236.5439"/><path d="m512 256c0 141.386719-114.613281 256-256 256s-256-114.613281-256-256 114.613281-256 256-256 256 114.613281 256 256zm0 0" fill="url(#a)"/><path d="m256 56.75c-109.867188 0-199.25 89.382812-199.25 199.25s89.382812 199.25 199.25 199.25 199.25-89.382812 199.25-199.25-89.382812-199.25-199.25-199.25zm0 0" fill="url(#b)"/><path d="m256 80.101562c-96.992188 0-175.898438 78.90625-175.898438 175.898438s78.90625 175.898438 175.898438 175.898438 175.898438-78.90625 175.898438-175.898438-78.90625-175.898438-175.898438-175.898438zm0 0" fill="url(#c)"/><path d="m256 150.148438c-58.367188 0-105.851562 47.484374-105.851562 105.851562s47.484374 105.851562 105.851562 105.851562 105.851562-47.484374 105.851562-105.851562-47.484374-105.851562-105.851562-105.851562zm0 0" fill="#fff"/><path d="m327.738281 215.289062-30.226562-30.566406c-12.199219-7.132812-26.386719-11.226562-41.511719-11.226562s-29.3125 4.09375-41.511719 11.226562l-30.226562 30.566406c-6.851563 12.019532-10.765625 25.914063-10.765625 40.710938 0 14.792969 3.914062 28.691406 10.761718 40.710938l29.6875 30.246093c12.324219 7.332031 26.707032 11.546875 42.054688 11.546875 15.125 0 29.3125-4.09375 41.511719-11.226562l30.226562-30.566406c6.851563-12.019532 10.765625-25.917969 10.765625-40.710938 0-14.796875-3.914062-28.691406-10.765625-40.710938zm0 0" fill="url(#d)"/><path d="m256 126.800781c54.78125 0 103.777344 34.707031 121.925781 86.371094l22.027344-7.738281c-21.425781-61-79.277344-101.984375-143.953125-101.984375s-122.527344 40.984375-143.953125 101.980469l22.027344 7.738281c18.148437-51.660157 67.144531-86.367188 121.925781-86.367188zm0 0" fill="#fff"/><path d="m256 385.199219c-54.78125 0-103.777344-34.707031-121.925781-86.371094l-22.027344 7.738281c21.425781 61 79.277344 101.984375 143.953125 101.984375s122.527344-40.984375 143.953125-101.980469l-22.027344-7.738281c-18.148437 51.660157-67.144531 86.367188-121.925781 86.367188zm0 0" fill="#fff"/><path d="m304.050781 256 23.710938 40.726562c-7.199219 12.667969-17.660157 23.238282-30.238281 30.574219l-17.503907-30.050781zm0 0" fill="url(#f)"/><path d="m327.761719 215.273438-23.710938 40.726562-24.03125-41.25 17.503907-30.050781c12.582031 7.335937 23.039062 17.90625 30.238281 30.574219zm0 0" fill="url(#g)"/><path d="m256 173.496094-24.019531 41.253906 24.019531 41.25 24.019531-41.25zm0 0" fill="url(#h)"/><path d="m231.980469 297.25 24.019531 41.253906 24.019531-41.253906-24.019531-41.25zm0 0" fill="url(#i)"/><path d="m231.980469 297.25-17.503907 30.050781c-12.582031-7.339843-23.039062-17.90625-30.238281-30.574219l23.710938-40.726562zm0 0" fill="url(#j)"/><path d="m214.476562 184.699219 17.503907 30.050781-24.03125 41.25-23.710938-40.726562c7.199219-12.667969 17.65625-23.238282 30.238281-30.574219zm0 0" fill="url(#k)"/></svg>